<?xml version="1.0" encoding="UTF-8"?>
<!-- Generated by Pixelmator Pro 3.8 -->
<svg width="804" height="818" viewBox="0 0 804 818" xmlns="http://www.w3.org/2000/svg">
    <path id="Shape" fill="#0a1c38" fill-rule="evenodd" stroke="none" d="M 174 312.841003 C 156.002563 326.358887 147.506958 333.062805 143.509644 336.4599 C 139.512329 339.856995 131.886597 346.655701 126.563568 351.568237 C 121.24054 356.480713 112.073608 365.863525 106.192657 372.418945 C 100.311707 378.974426 92.446136 388.199402 88.713623 392.918945 C 84.98111 397.63855 79.859161 404.50824 77.331512 408.185059 C 72.735748 414.870117 72.735748 414.870117 78.014282 422.685059 C 80.91748 426.983276 87.585693 435.900024 92.83252 442.5 C 98.079376 449.099976 109.825989 461.959595 118.936127 471.076843 C 128.046265 480.194092 139.325012 490.794434 144 494.633118 C 148.674988 498.471802 157 504.995117 162.5 509.129395 C 168 513.263672 175.92807 518.949402 180.11792 521.764465 C 184.307739 524.579468 191.169983 528.967651 195.36734 531.515869 C 201.997498 535.541138 203.512665 537.025024 206.914795 542.824585 C 209.068542 546.496033 213.051941 552.650024 215.766815 556.5 C 218.481659 560.349976 223.039215 566.424988 225.894745 570 C 228.750275 573.575012 235.004608 580.503174 239.793304 585.395874 C 244.58197 590.288635 252.100006 597.307068 256.5 600.992432 C 260.899994 604.677734 268.210083 610.272827 272.744629 613.426025 C 277.279175 616.579102 284.920715 621.421265 289.72583 624.186157 C 294.530884 626.951172 302.970825 631.241699 308.481201 633.720581 C 313.991516 636.199585 323.89679 640.034058 330.492859 642.241577 C 337.088928 644.449219 348.563904 647.532227 355.992859 649.092834 C 363.421753 650.653442 375.125 652.465576 382 653.119873 C 389.80011 653.862122 401.455872 654.078735 413 653.695801 C 424.682495 653.30835 435.737915 652.323486 443 651.023193 C 449.325012 649.890747 459.450012 647.639526 465.5 646.020386 C 471.549988 644.401245 481.117432 641.269714 486.760986 639.061401 C 492.404541 636.853149 500.729492 633.273193 505.260986 631.105957 C 509.792419 628.93866 518.346069 624.222778 524.268982 620.626221 C 530.191895 617.029663 539.416931 610.722351 544.768982 606.609985 C 550.121033 602.49762 558.744202 594.942871 563.931519 589.821594 C 569.118835 584.700317 576.73822 576.457886 580.863403 571.505127 C 584.988586 566.552307 591.630249 557.549988 595.62262 551.5 C 602.703735 540.769287 603.077454 540.39502 610.886719 536.211121 C 615.289612 533.852173 625.557922 527.501221 633.7052 522.097656 C 641.852478 516.694214 653.464294 508.354614 659.509216 503.565308 C 665.554138 498.77594 675.623413 490.276978 681.885437 484.678711 C 688.1474 479.080444 698.242615 469.099976 704.319214 462.5 C 710.395813 455.900024 718.897278 446.073853 723.211304 440.664124 C 727.52533 435.254333 733.33429 427.450439 736.120056 423.322083 C 739.447388 418.391235 741.008667 415.141235 740.670837 413.849365 C 740.388 412.7677 736.285034 406.728394 731.553162 400.42865 C 726.821289 394.128845 718.947021 384.367737 714.054749 378.737244 C 709.162476 373.10675 699.386292 362.825867 692.329834 355.890808 C 685.273438 348.955811 675.224976 339.69696 670 335.315674 C 664.775024 330.934387 655.912598 323.879639 650.305786 319.638428 C 640.769409 312.424744 640.071106 311.655273 639.48407 307.713562 C 639.138916 305.396118 639.053833 269.075012 639.295044 227 C 639.66571 162.34845 639.985535 149.028625 641.360046 141 C 642.254578 135.775024 644.138184 127.450012 645.545898 122.5 C 646.953613 117.549988 649.903137 109 652.100403 103.5 C 654.297668 98 658.588257 89.088074 661.635071 83.695679 C 664.681824 78.303284 669.944458 70.203308 673.329834 65.695679 C 676.71521 61.188049 683.035461 53.790039 687.374939 49.255615 C 691.714355 44.721252 699.763 37.563354 705.260681 33.349243 C 710.758423 29.135132 718.982788 23.54303 723.537048 20.922424 C 728.091309 18.301758 735.361877 14.599243 739.693787 12.694641 C 744.025757 10.789978 751.829285 7.875488 757.035034 6.218018 C 762.240784 4.560425 770.741821 2.483398 775.926208 1.602173 C 781.110657 0.720947 788.535645 0.006836 792.426208 0.015259 C 796.316772 0.023682 799.995117 0.361206 800.600342 0.765259 C 801.205444 1.169434 802.218018 2.48291 802.850342 3.684204 C 803.706909 5.311646 803.996216 63.692566 803.985229 232.684265 C 803.976318 368.440491 803.580811 465.321289 803.000122 474 C 802.466553 481.974976 801.302246 493.674988 800.41272 500 C 799.523193 506.325012 797.443665 517.575012 795.791504 525 C 794.139282 532.424988 790.540161 545.474976 787.793396 554 C 785.046631 562.525024 780.785889 574.450012 778.325012 580.5 C 775.864197 586.549988 771.203491 596.921387 767.967834 603.547485 C 764.732239 610.173584 758.856201 620.973633 754.909973 627.547485 C 750.963806 634.121338 745.236328 643.099976 742.182312 647.5 C 739.128235 651.900024 733.485352 659.549988 729.642395 664.5 C 725.7995 669.450012 718.26593 678.450012 712.901062 684.5 C 707.536194 690.549988 699.17627 699.369873 694.323425 704.099609 C 689.47052 708.829407 681.550415 716.160278 676.723083 720.390503 C 671.895813 724.620667 661.582031 732.804199 653.80365 738.57605 C 646.025208 744.3479 633.324829 752.953857 625.580566 757.700439 C 617.836243 762.447021 605.200012 769.5495 597.5 773.483765 C 589.799988 777.417969 577.951782 782.971558 571.170593 785.825012 C 564.389404 788.678467 551.483765 793.490234 542.491333 796.517761 C 533.49884 799.545349 518.660889 803.823669 509.518066 806.025208 C 500.375244 808.226685 486.055969 811.134155 477.697388 812.486328 C 469.338806 813.838379 455.525024 815.605957 447 816.414124 C 438.474976 817.222351 424.299988 818.060303 415.5 818.276367 C 406.700012 818.49231 391.400024 818.347168 381.5 817.953857 C 371.599976 817.560486 356.974976 816.477661 349 815.547607 C 341.025024 814.617554 328.424988 812.748535 321 811.394226 C 313.575012 810.039917 300.974976 807.332825 293 805.37854 C 285.024994 803.424194 272.649994 799.897095 265.5 797.540466 C 258.350006 795.183899 246.649994 790.917114 239.5 788.058716 C 232.350006 785.200317 219.75 779.532532 211.5 775.463623 C 203.25 771.394775 190.635773 764.563416 183.468384 760.282837 C 176.300995 756.002319 165.450684 748.995728 159.356598 744.712769 C 153.262512 740.42981 143.37674 733.009888 137.388214 728.224121 C 131.399689 723.438293 120.694977 713.892578 113.599976 707.011353 C 106.504944 700.130127 96.226044 689.549988 90.757935 683.5 C 85.289825 677.450012 76.397736 666.645691 70.997742 659.490356 C 65.597778 652.335083 57.828735 641.085083 53.733276 634.490356 C 49.637787 627.895691 43.779816 617.775024 40.715576 612 C 37.651337 606.224976 32.579498 595.678955 29.444839 588.564331 C 26.310165 581.449707 21.057709 567.499695 17.77272 557.564331 C 14.487717 547.628906 10.286545 532.911133 8.436768 524.857971 C 6.586975 516.804871 4.072647 504.204895 2.84935 496.857971 C 0.625168 483.5 0.625168 483.5 0.292587 244.10498 C -0.012772 24.315857 0.093277 4.506592 1.587418 2.226196 C 3.214844 -0.257568 3.214844 -0.257568 18.857422 0.289185 C 30.550171 0.697754 37.151306 1.464478 45 3.325439 C 50.774994 4.694824 59.821289 7.367554 65.102875 9.265015 C 70.38446 11.162415 79.159485 15.049438 84.602875 17.902771 C 90.046295 20.756165 98.75705 26.107849 103.960144 29.795349 C 109.163208 33.48291 118.059143 40.952698 123.728882 46.394836 C 129.398621 51.836975 137.130707 60.386963 140.911285 65.394836 C 144.691895 70.402649 149.880768 78.146423 152.442169 82.603149 C 155.003571 87.059814 158.886566 94.85199 161.071075 99.918945 C 163.255554 104.985901 166.368622 113.853088 167.989014 119.623718 C 169.609375 125.394409 171.624725 134.76001 172.46756 140.436279 C 173.746643 149.050415 174 164.155457 174 231.798828 L 174 312.841003 Z"/>
    <g id="eye">
    <path id="path1" fill="#0a1c38" fill-rule="evenodd" stroke="none" d="M 407.5 515.563171 C 397.971436 515.827515 391.104614 515.492615 386 514.514587 C 381.875 513.724304 375.213196 511.953735 371.195984 510.580017 C 367.178833 509.20636 360.264832 506.151367 355.831604 503.791199 C 351.398376 501.43103 344.110168 496.479187 339.63562 492.787048 C 335.161011 489.094971 328.670715 482.569946 325.212708 478.287048 C 321.7547 474.004211 316.690186 466 313.958313 460.5 C 311.034729 454.614136 307.882629 446.180176 306.296631 440 C 304.039063 431.202637 303.593811 427.293396 303.551086 415.892334 C 303.515686 406.462097 304.059875 399.55481 305.323792 393.392334 C 306.326843 388.501587 308.841187 380.384277 310.911133 375.353943 C 312.98114 370.323608 317.291992 362.314819 320.490784 357.55658 C 323.91925 352.456787 330.085388 345.332703 335.51123 340.202637 C 340.889221 335.117798 347.94812 329.654541 352.491394 327.06073 C 356.768127 324.61908 364.238342 321.129822 369.09198 319.306702 C 373.945557 317.483643 382.275513 315.255615 387.603027 314.35553 C 394.707703 313.155212 400.382385 312.879211 408.894653 313.320068 C 415.277588 313.650635 423.424988 314.625854 427 315.487183 C 430.575012 316.348572 435.313904 317.793457 437.530884 318.698181 C 441.561707 320.343079 441.561707 320.343079 436.858459 325.046265 C 434.271667 327.633057 430.78595 332.462097 429.112366 335.777405 C 427.438782 339.092773 425.611145 344.674194 425.051025 348.180603 C 424.386292 352.341675 424.36377 356.59082 424.986145 360.414978 C 425.51062 363.637512 427.2276 369.026245 428.801697 372.389893 C 430.375732 375.753601 433.778748 380.62085 436.363892 383.205994 C 438.949036 385.791138 443.862244 389.281677 447.282104 390.96283 C 450.701904 392.643921 456.394897 394.527588 459.933105 395.148804 C 464.790405 396.001587 467.943604 395.98761 472.805481 395.091736 C 476.347046 394.439209 481.927368 392.551025 485.206238 390.895874 C 488.485107 389.240723 493.108032 386.098083 495.47937 383.912292 C 499.790894 379.938049 499.790894 379.938049 501.325806 384.44281 C 502.170044 386.920471 503.45459 392.446899 504.180359 396.723816 C 504.906189 401.000732 505.458435 409.900024 505.407654 416.5 C 505.335632 425.866455 504.750244 430.733337 502.740295 438.676392 C 501.323975 444.273376 498.384888 452.651855 496.208923 457.295166 C 494.03302 461.938538 490.308044 468.609192 487.931335 472.118835 C 485.554565 475.628479 479.985229 482.115295 475.554993 486.533997 C 471.124756 490.952698 464.172913 496.7677 460.106506 499.456177 C 456.040039 502.144714 449.290039 505.814758 445.106506 507.611938 C 440.922913 509.409058 433.900024 511.845886 429.5 513.0271 C 423.687195 514.587585 417.672424 515.280945 407.5 515.563171 Z"/>
    <path id="path2" fill="#1ca8a7" fill-rule="evenodd" stroke="none" d="M 524.559692 512.760681 C 519.619324 513.291016 519.619324 513.291016 521.559692 510.306519 C 522.626831 508.6651 525.948669 503.540161 528.941467 498.917847 C 531.934326 494.295532 536.2453 486.863953 538.521423 482.403259 C 540.797546 477.942505 544.282776 469.389465 546.266418 463.396423 C 548.25 457.403381 550.689087 448.508484 551.686523 443.630005 C 553.084045 436.794678 553.5 430.142639 553.5 414.630005 C 553.5 399.440369 553.062134 392.226379 551.715881 385.235779 C 550.734619 380.140503 548.579956 371.815491 546.927734 366.735779 C 545.275513 361.656128 541.94696 353.450012 539.530945 348.5 C 537.114929 343.549988 531.937561 334.607056 528.025635 328.626831 C 524.113708 322.646545 521.172424 317.494263 521.48938 317.177246 C 521.806396 316.860291 524.469116 317.105042 527.406555 317.721191 C 530.344055 318.33728 537.86676 320.850403 544.123718 323.305847 C 550.380676 325.761292 560.263428 330.007935 566.085327 332.742859 C 571.907288 335.477722 581.581055 340.544006 587.582642 344.001221 C 593.584229 347.458435 603.092957 353.372253 608.713196 357.143066 C 614.333435 360.913818 623.334656 367.541077 628.715881 371.8703 C 634.097168 376.199524 643.018799 384.187256 648.541748 389.620789 C 654.064697 395.054382 661.152161 402.625061 664.291748 406.44458 C 667.431274 410.264099 669.999939 414.089111 669.999878 414.94458 C 669.999817 415.800049 666.744324 420.325012 662.765381 425 C 658.786438 429.674988 651.699036 437.275391 647.015503 441.889709 C 642.33197 446.504089 634.224976 453.865845 629 458.249207 C 623.775024 462.632568 613.190308 470.410278 605.478394 475.532959 C 597.766541 480.655701 586.066528 487.679504 579.478394 491.141418 C 572.890259 494.603394 563.603271 499.117126 558.840515 501.171997 C 554.07782 503.226807 545.527832 506.555542 539.840515 508.569214 C 534.153259 510.582825 527.276855 512.468994 524.559692 512.760681 Z M 285.866638 511.974426 C 285.11499 511.960388 281.350006 510.870239 277.5 509.552002 C 273.649994 508.233704 265.553986 505.077576 259.50885 502.538391 C 253.463745 499.999207 242.888733 494.976013 236.00885 491.375732 C 229.128998 487.775452 217.200012 480.643066 209.5 475.52594 C 201.799988 470.408813 189.856934 461.500366 182.959869 455.729431 C 176.062805 449.958496 166.210419 440.796021 161.065674 435.368408 C 155.920929 429.940796 149.918701 423.132568 147.727386 420.239075 C 143.743164 414.978088 143.743164 414.978088 146.422913 411.111206 C 147.89679 408.984436 153.999115 402.087646 159.983673 395.785034 C 165.968201 389.482361 175.437317 380.539917 181.026093 375.912842 C 186.614868 371.285767 194.843597 364.878967 199.312103 361.675476 C 203.780609 358.472046 211.500916 353.329285 216.468353 350.247192 C 221.43576 347.1651 232.700012 340.971558 241.5 336.483765 C 250.299988 331.995911 262.403229 326.412231 268.396057 324.0755 C 274.388916 321.738708 280.879913 319.569214 282.820526 319.254272 C 286.348877 318.681702 286.348877 318.681702 283.85437 323.09082 C 282.482391 325.515869 279.685303 330.09491 277.638641 333.266541 C 275.591949 336.43811 271.901245 343.175476 269.437042 348.238403 C 266.97287 353.301392 263.411469 362.223633 261.522888 368.065674 C 259.634277 373.907715 257.281525 382.695313 256.294525 387.59375 C 254.985565 394.090149 254.5 401.128113 254.5 413.60437 C 254.5 425.111755 255.054016 433.946899 256.193024 440.60437 C 257.124176 446.046997 259.27301 454.737732 260.96817 459.917114 C 262.66333 465.096558 266.242828 473.871582 268.922577 479.417114 C 271.602325 484.962708 276.609985 493.775024 280.050751 499 C 283.491486 504.224976 286.515137 509.287476 286.769958 510.25 C 287.046631 511.295105 286.6828 511.989685 285.866638 511.974426 Z"/>
    </g>
</svg>
